<svg width="390" height="870" viewBox="0 0 390 870" fill="none" xmlns="http://www.w3.org/2000/svg">
<path d="M-836.718 -957.253C-830.44 -957.809 -821.782 -957.151 -814.744 -959.198C-690.591 -961.64 -580.288 -901.65 -578.57 -893.262C-472.891 -647.808 -285.489 -133.43 -196.365 109.217C-124.589 303.576 -70.789 503.798 19.0607 697.984C39.5269 742.217 76.3614 754.442 109.273 732.704C149.785 712.037 180.68 680.835 217.954 654.761C292.501 602.613 419.834 487.01 573.459 597.259C658.648 659.471 692.189 734.795 700.517 806.656C704.45 851.86 631.477 1019.59 585.809 1015.09C551.179 1012.46 518.696 952.702 503.264 924.174C481.355 884.832 472.861 848.574 450.952 809.232C445.533 813.982 436.974 819.01 431.555 823.76C399.139 857.945 371.482 894.556 332.688 923.612C239.703 1000.17 57.9912 992.048 -87.2397 912.373C-145.2 879.068 -299.504 904.823 -339.026 847.11C-486.737 625.305 -638.179 331.875 -745.841 107.95C-859.979 -126.79 -902.038 -646.843 -1021.7 -882.52C-1023.42 -890.909 -982.741 -947.178 -836.718 -957.253Z" fill="url(#paint0_linear_3072_89)"/>
<defs>
<linearGradient id="paint0_linear_3072_89" x1="-354.106" y1="-492.716" x2="472.448" y2="1032.06" gradientUnits="userSpaceOnUse">
<stop offset="0.591004" stop-color="#03A7FF"/>
<stop offset="0.89364" stop-color="#061A4B"/>
<stop offset="1"/>
</linearGradient>
</defs>
</svg>
